<svg width="600" height="400" xmlns="http://www.w3.org/2000/svg">
  <!-- Background -->
  <rect width="600" height="400" fill="#f0f0f0"/>
  
  <!-- Header -->
  <rect x="0" y="0" width="600" height="70" fill="#d0d0d0"/>
  <rect x="20" y="20" width="150" height="30" fill="#a0a0a0"/>
  <rect x="400" y="20" width="60" height="30" fill="#a0a0a0"/>
  <rect x="470" y="20" width="60" height="30" fill="#a0a0a0"/>
  <rect x="540" y="20" width="40" height="30" fill="#a0a0a0"/>
  
  <!-- Hero Image -->
  <rect x="0" y="70" width="600" height="150" fill="#c0c0c0"/>
  <text x="300" y="145" font-family="Arial" font-size="18" text-anchor="middle" fill="#808080">Restaurant Hero Image</text>
  
  <!-- Content Blocks -->
  <rect x="20" y="240" width="180" height="140" fill="#d0d0d0"/>
  <rect x="40" y="260" width="140" height="20" fill="#a0a0a0"/>
  <rect x="40" y="290" width="140" height="10" fill="#a0a0a0"/>
  <rect x="40" y="310" width="140" height="10" fill="#a0a0a0"/>
  <rect x="40" y="330" width="140" height="10" fill="#a0a0a0"/>
  <rect x="40" y="350" width="80" height="20" fill="#a0a0a0"/>
  
  <rect x="210" y="240" width="180" height="140" fill="#d0d0d0"/>
  <rect x="230" y="260" width="140" height="20" fill="#a0a0a0"/>
  <rect x="230" y="290" width="140" height="10" fill="#a0a0a0"/>
  <rect x="230" y="310" width="140" height="10" fill="#a0a0a0"/>
  <rect x="230" y="330" width="140" height="10" fill="#a0a0a0"/>
  <rect x="230" y="350" width="80" height="20" fill="#a0a0a0"/>
  
  <rect x="400" y="240" width="180" height="140" fill="#d0d0d0"/>
  <rect x="420" y="260" width="140" height="20" fill="#a0a0a0"/>
  <rect x="420" y="290" width="140" height="10" fill="#a0a0a0"/>
  <rect x="420" y="310" width="140" height="10" fill="#a0a0a0"/>
  <rect x="420" y="330" width="140" height="10" fill="#a0a0a0"/>
  <rect x="420" y="350" width="80" height="20" fill="#a0a0a0"/>
  
  <!-- Overlay Text -->
  <text x="300" y="200" font-family="Arial" font-size="24" text-anchor="middle" fill="#808080">Restaurant Website (Before)</text>
  <text x="300" y="230" font-family="Arial" font-size="16" text-anchor="middle" fill="#808080">Outdated design with poor navigation</text>
</svg>