<svg width="600" height="400" xmlns="http://www.w3.org/2000/svg">
  <defs>
    <linearGradient id="headerGrad" x1="0%" y1="0%" x2="100%" y2="0%">
      <stop offset="0%" style="stop-color:#4f46e5;stop-opacity:1" />
      <stop offset="100%" style="stop-color:#7c3aed;stop-opacity:1" />
    </linearGradient>
    <linearGradient id="buttonGrad" x1="0%" y1="0%" x2="100%" y2="0%">
      <stop offset="0%" style="stop-color:#4f46e5;stop-opacity:1" />
      <stop offset="100%" style="stop-color:#6366f1;stop-opacity:1" />
    </linearGradient>
  </defs>
  
  <!-- Background -->
  <rect width="600" height="400" fill="#ffffff"/>
  
  <!-- Header -->
  <rect x="0" y="0" width="600" height="70" fill="url(#headerGrad)"/>
  <rect x="20" y="20" width="150" height="30" fill="#ffffff" rx="5" ry="5"/>
  <rect x="400" y="20" width="60" height="30" fill="transparent" stroke="#ffffff" stroke-width="2" rx="15" ry="15"/>
  <rect x="470" y="20" width="60" height="30" fill="transparent" stroke="#ffffff" stroke-width="2" rx="15" ry="15"/>
  <rect x="540" y="20" width="40" height="30" fill="#ffffff" rx="5" ry="5"/>
  
  <!-- Hero Section -->
  <rect x="0" y="70" width="600" height="180" fill="#f8f8f8"/>
  <rect x="40" y="100" width="250" height="120" fill="#ffffff" rx="10" ry="10" stroke="#e2e8f0" stroke-width="1"/>
  <rect x="60" y="120" width="180" height="25" fill="#f8fafc" rx="5" ry="5"/>
  <rect x="60" y="155" width="210" height="10" fill="#f1f5f9" rx="5" ry="5"/>
  <rect x="60" y="175" width="180" height="10" fill="#f1f5f9" rx="5" ry="5"/>
  <rect x="60" y="195" width="120" height="15" fill="url(#buttonGrad)" rx="5" ry="5"/>
  
  <rect x="310" y="100" width="250" height="120" fill="#ffffff" rx="10" ry="10" stroke="#e2e8f0" stroke-width="1"/>
  <rect x="330" y="110" width="210" height="100" fill="#f1f5f9" rx="5" ry="5"/>
  
  <!-- Content Section -->
  <rect x="40" y="240" width="520" height="60" fill="#ffffff" rx="10" ry="10" stroke="#e2e8f0" stroke-width="1"/>
  <rect x="60" y="250" width="200" height="20" fill="#f1f5f9" rx="5" ry="5"/>
  <rect x="60" y="280" width="480" height="10" fill="#f1f5f9" rx="5" ry="5"/>
  
  <!-- Menu Cards -->
  <rect x="40" y="320" width="165" height="70" fill="#ffffff" rx="10" ry="10" stroke="#e2e8f0" stroke-width="1"/>
  <rect x="50" y="330" width="60" height="50" fill="#f1f5f9" rx="5" ry="5"/>
  <rect x="120" y="330" width="75" height="15" fill="#f1f5f9" rx="5" ry="5"/>
  <rect x="120" y="355" width="50" height="10" fill="#f1f5f9" rx="5" ry="5"/>
  <rect x="120" y="370" width="30" height="10" fill="url(#buttonGrad)" rx="5" ry="5"/>
  
  <rect x="217.5" y="320" width="165" height="70" fill="#ffffff" rx="10" ry="10" stroke="#e2e8f0" stroke-width="1"/>
  <rect x="227.5" y="330" width="60" height="50" fill="#f1f5f9" rx="5" ry="5"/>
  <rect x="297.5" y="330" width="75" height="15" fill="#f1f5f9" rx="5" ry="5"/>
  <rect x="297.5" y="355" width="50" height="10" fill="#f1f5f9" rx="5" ry="5"/>
  <rect x="297.5" y="370" width="30" height="10" fill="url(#buttonGrad)" rx="5" ry="5"/>
  
  <rect x="395" y="320" width="165" height="70" fill="#ffffff" rx="10" ry="10" stroke="#e2e8f0" stroke-width="1"/>
  <rect x="405" y="330" width="60" height="50" fill="#f1f5f9" rx="5" ry="5"/>
  <rect x="475" y="330" width="75" height="15" fill="#f1f5f9" rx="5" ry="5"/>
  <rect x="475" y="355" width="50" height="10" fill="#f1f5f9" rx="5" ry="5"/>
  <rect x="475" y="370" width="30" height="10" fill="url(#buttonGrad)" rx="5" ry="5"/>
  
  <!-- Overlay Text -->
  <text x="300" y="200" font-family="Arial" font-size="24" text-anchor="middle" fill="#333333">Restaurant Website (After)</text>
  <text x="300" y="230" font-family="Arial" font-size="16" text-anchor="middle" fill="#666666">Modern design with online ordering system</text>
</svg>